<svg xmlns="http://www.w3.org/2000/svg" width="145" height="59" fill="none"><mask id="a" width="145" height="59" x="0" y="0" maskUnits="userSpaceOnUse" style="mask-type:luminance"><path fill="#fff" d="M144.735 0H0v59h144.735V0Z"/></mask><g mask="url(#a)"><path fill="#545454" d="M49.303 47.765c.567.362 1.006.875 1.318 1.537.312.663.469 1.432.469 2.306 0 .875-.156 1.621-.469 2.27a3.557 3.557 0 0 1-1.318 1.512c-.568.357-1.22.535-1.962.535-.682 0-1.272-.147-1.769-.44a2.777 2.777 0 0 1-1.128-1.287v4.267c0 .161-.046.29-.14.388a.499.499 0 0 1-.382.147.528.528 0 0 1-.39-.147.523.523 0 0 1-.147-.388V47.793c0-.162.049-.29.147-.389a.528.528 0 0 1 .39-.147c.163 0 .289.05.382.147.092.098.14.227.14.389v1.157a2.76 2.76 0 0 1 1.128-1.286c.497-.294 1.087-.44 1.77-.44.739 0 1.393.18 1.96.543v-.002Zm-.043 6.337c.492-.592.738-1.425.738-2.495s-.246-1.946-.738-2.556c-.492-.61-1.177-.916-2.056-.916-.88 0-1.56.3-2.039.898-.48.599-.72 1.444-.72 2.538 0 1.093.237 1.937.712 2.53.474.592 1.151.889 2.03.889.88 0 1.581-.297 2.073-.89v.002ZM59.637 48.016c.503.53.754 1.33.754 2.4v4.923c0 .162-.046.29-.14.389a.502.502 0 0 1-.381.146.501.501 0 0 1-.383-.146.544.544 0 0 1-.139-.389v-1.036a2.706 2.706 0 0 1-1.06 1.2c-.462.282-.995.422-1.596.422-.545 0-1.042-.11-1.493-.328a2.63 2.63 0 0 1-1.067-.916 2.286 2.286 0 0 1-.39-1.295c0-.622.162-1.105.485-1.451.323-.346.86-.593 1.614-.743.75-.15 1.798-.225 3.14-.225h.364v-.638c0-.76-.156-1.316-.47-1.666-.31-.351-.803-.528-1.475-.528-.856 0-1.671.226-2.447.674a35.27 35.27 0 0 0-.269.181c-.144.099-.268.147-.372.147a.362.362 0 0 1-.287-.129.469.469 0 0 1-.113-.32c0-.252.202-.5.607-.742.405-.23.856-.408 1.353-.535.497-.128.989-.19 1.474-.19 1.018 0 1.779.265 2.28.795h.01Zm-1.007 6.235c.48-.506.72-1.151.72-1.934v-.57h-.33c-1.11 0-1.961.046-2.55.139-.59.093-1.007.25-1.25.475-.242.225-.363.55-.363.976 0 .483.185.883.556 1.2.37.316.826.474 1.37.474.752 0 1.368-.253 1.849-.76h-.002ZM68.233 47.342c.092.069.14.185.14.346 0 .287-.175.449-.52.483l-.52.053c-.822.08-1.432.373-1.83.88a2.797 2.797 0 0 0-.599 1.78v4.473c0 .173-.046.305-.14.397a.52.52 0 0 1-.381.139.543.543 0 0 1-.39-.14c-.1-.092-.148-.224-.148-.396v-7.564c0-.173.049-.306.147-.397a.55.55 0 0 1 .39-.139c.151 0 .273.046.365.139.091.093.139.219.139.38V48.9c.474-.99 1.353-1.53 2.637-1.624l.243-.018c.22-.011.375.018.468.087l-.001-.002ZM75.19 55.458a.393.393 0 0 1-.156.328c-.103.08-.272.115-.503.103l-.486-.034c-.878-.057-1.53-.325-1.95-.803-.424-.478-.634-1.206-.634-2.185v-4.594h-1.318a.464.464 0 0 1-.33-.113.395.395 0 0 1-.121-.302.42.42 0 0 1 .121-.31c.08-.08.19-.12.33-.12h1.318v-2.142c0-.173.046-.305.14-.397a.52.52 0 0 1 .382-.139c.162 0 .292.046.39.14.098.092.148.224.148.396v2.141h2.099c.15 0 .265.04.347.12.08.08.121.185.121.311a.395.395 0 0 1-.12.302c-.081.075-.198.113-.349.113h-2.098v4.644c0 .715.139 1.224.416 1.528.277.305.712.481 1.302.527l.47.034c.322.035.484.185.484.45l-.003.002ZM84.388 50.468v4.887c0 .162-.046.291-.14.389a.5.5 0 0 1-.382.147.528.528 0 0 1-.39-.147.523.523 0 0 1-.148-.389v-4.817c0-.83-.167-1.433-.503-1.813-.336-.38-.868-.57-1.596-.57-.833 0-1.5.253-2.004.76-.503.508-.754 1.187-.754 2.039v4.403c0 .162-.046.29-.14.389a.499.499 0 0 1-.381.146.528.528 0 0 1-.39-.147.523.523 0 0 1-.148-.388v-7.564c0-.162.05-.29.148-.389a.528.528 0 0 1 .39-.147c.15 0 .272.046.364.139.092.093.14.219.14.38v1.089a2.808 2.808 0 0 1 1.154-1.218c.503-.282 1.084-.422 1.743-.422 2.023 0 3.037 1.082 3.037 3.246v-.003ZM94.563 54.138a.446.446 0 0 1 .113.302c0 .253-.196.501-.59.742a5.088 5.088 0 0 1-2.637.743c-1.284 0-2.295-.385-3.037-1.157-.74-.772-1.11-1.831-1.11-3.178 0-.863.164-1.625.495-2.288a3.663 3.663 0 0 1 1.39-1.537c.595-.362 1.28-.544 2.056-.544 1.087 0 1.946.348 2.576 1.045.631.697.946 1.655.946 2.876 0 .207-.046.36-.14.456-.093.099-.242.147-.45.147h-5.779c.034 1.06.311 1.866.833 2.418.52.553 1.255.829 2.204.829.497 0 .913-.067 1.25-.2a8.299 8.299 0 0 0 1.075-.527c.254-.173.435-.26.538-.26.103 0 .194.043.269.13l-.002.003Zm-5.265-5.293c-.486.506-.776 1.215-.868 2.124h5.363c-.023-.92-.255-1.633-.694-2.133-.44-.502-1.06-.751-1.856-.751-.797 0-1.458.253-1.944.76h-.001ZM102.05 47.342c.092.069.139.185.139.346 0 .287-.174.449-.52.483l-.518.053c-.822.08-1.432.373-1.83.88a2.797 2.797 0 0 0-.6 1.78v4.473c0 .173-.045.305-.139.397a.522.522 0 0 1-.382.139.543.543 0 0 1-.39-.14c-.099-.092-.148-.224-.148-.396v-7.564c0-.173.05-.306.148-.397a.55.55 0 0 1 .39-.139c.151 0 .272.046.364.139.092.093.14.219.14.38V48.9c.473-.99 1.353-1.53 2.637-1.624l.243-.018c.218-.011.374.018.468.087l-.002-.002ZM105.443 55.726a4.592 4.592 0 0 1-1.241-.544c-.22-.15-.372-.279-.459-.388a.58.58 0 0 1-.13-.37.42.42 0 0 1 .113-.294.36.36 0 0 1 .269-.12c.103 0 .284.086.538.259.335.218.679.396 1.033.535.353.139.796.207 1.327.207.682 0 1.215-.124 1.597-.372.382-.248.573-.602.573-1.062 0-.276-.069-.505-.209-.683-.139-.177-.37-.333-.693-.466-.325-.133-.788-.261-1.389-.389-1.03-.23-1.762-.527-2.196-.89-.435-.362-.651-.848-.651-1.458 0-.736.288-1.332.867-1.787.579-.456 1.33-.683 2.257-.683.451 0 .882.058 1.292.173.41.116.766.283 1.068.501.405.276.606.547.606.812a.44.44 0 0 1-.113.301.343.343 0 0 1-.269.13c-.116 0-.295-.092-.538-.276a5.186 5.186 0 0 0-.928-.528c-.306-.132-.697-.199-1.171-.199-.602 0-1.082.136-1.44.407-.359.27-.537.636-.537 1.096 0 .265.06.483.182.657.121.172.329.324.624.456.296.133.72.263 1.276.389.799.184 1.412.38 1.84.587.428.208.735.456.92.743.186.287.277.656.277 1.105 0 .702-.298 1.27-.893 1.7-.596.433-1.386.648-2.368.648-.486 0-.963-.067-1.432-.199l-.002.002ZM120.113 50.468v4.887c0 .162-.046.291-.14.389a.497.497 0 0 1-.382.147.527.527 0 0 1-.39-.147.525.525 0 0 1-.148-.389v-4.817c0-.83-.167-1.433-.503-1.813-.336-.38-.868-.57-1.596-.57-.833 0-1.5.253-2.004.76-.503.508-.754 1.187-.754 2.039v4.403c0 .162-.046.29-.14.389a.497.497 0 0 1-.382.146.527.527 0 0 1-.39-.146.525.525 0 0 1-.148-.389V44.08c0-.162.05-.29.148-.389a.527.527 0 0 1 .39-.147.5.5 0 0 1 .382.147c.092.098.14.227.14.389v4.749a2.774 2.774 0 0 1 1.154-1.191c.504-.276 1.079-.415 1.727-.415 2.024 0 3.037 1.082 3.037 3.246l-.001-.002ZM123.54 45.098a.71.71 0 0 1-.216-.535c0-.23.072-.415.216-.553a.782.782 0 0 1 .565-.207c.231 0 .419.068.563.207a.733.733 0 0 1 .216.553c0 .23-.072.397-.216.535a.778.778 0 0 1-.563.208.783.783 0 0 1-.565-.208Zm.174 10.656c-.098-.091-.147-.225-.147-.397v-7.564c0-.173.049-.305.147-.397a.552.552 0 0 1 .391-.139c.162 0 .288.046.382.14.092.092.139.224.139.396v7.564c0 .173-.046.306-.139.397a.523.523 0 0 1-.382.139.545.545 0 0 1-.391-.14ZM134.028 47.765c.568.362 1.007.875 1.319 1.537.311.663.469 1.432.469 2.306 0 .875-.156 1.621-.469 2.27a3.559 3.559 0 0 1-1.319 1.512c-.567.357-1.22.535-1.961.535-.682 0-1.273-.147-1.77-.44a2.774 2.774 0 0 1-1.128-1.287v4.267a.54.54 0 0 1-.139.388.5.5 0 0 1-.382.147.53.53 0 0 1-.391-.147.524.524 0 0 1-.147-.388V47.793c0-.162.049-.29.147-.389a.53.53 0 0 1 .391-.147c.162 0 .288.05.382.147a.549.549 0 0 1 .139.389v1.157c.254-.565.63-.992 1.128-1.286.497-.294 1.088-.44 1.77-.44.739 0 1.394.18 1.961.543v-.002Zm-.042 6.337c.492-.592.738-1.425.738-2.495s-.246-1.946-.738-2.556c-.492-.61-1.178-.916-2.057-.916s-1.56.3-2.038.898c-.481.599-.72 1.444-.72 2.538 0 1.093.236 1.937.711 2.53.474.592 1.152.889 2.031.889.879 0 1.581-.297 2.073-.89v.002ZM140.041 55.726a4.592 4.592 0 0 1-1.241-.544c-.22-.15-.372-.279-.459-.388a.58.58 0 0 1-.13-.37.42.42 0 0 1 .113-.294.36.36 0 0 1 .269-.12c.104 0 .284.086.538.259.335.218.679.396 1.033.535.353.139.796.207 1.327.207.682 0 1.215-.124 1.597-.372.382-.248.573-.602.573-1.062 0-.276-.069-.505-.209-.683-.139-.177-.37-.333-.693-.466-.325-.133-.787-.261-1.389-.389-1.03-.23-1.762-.527-2.196-.89-.433-.362-.651-.848-.651-1.458 0-.736.288-1.332.867-1.787.579-.456 1.33-.683 2.257-.683.451 0 .882.058 1.292.173.41.116.766.283 1.068.501.405.276.607.547.607.812a.441.441 0 0 1-.114.301.343.343 0 0 1-.269.13c-.116 0-.295-.092-.538-.276a5.186 5.186 0 0 0-.928-.528c-.306-.132-.697-.199-1.171-.199-.602 0-1.082.136-1.44.407-.359.27-.537.636-.537 1.096 0 .265.06.483.182.657.121.172.329.324.624.456.296.133.72.263 1.276.389.799.184 1.412.38 1.84.587.428.208.735.456.92.743.186.287.278.656.278 1.105 0 .702-.299 1.27-.894 1.7-.596.433-1.386.648-2.368.648-.486 0-.963-.067-1.432-.199l-.002.002Z"/><path fill="#00427F" d="M2.673 40.362C.954 38.614 0 36.334 0 33.942c0-2.393.954-4.675 2.673-6.422 1.718-1.71 4.01-2.622 6.453-2.622 1.603 0 3.055.57 4.314 1.71l.19.153v-1.52h4.62v17.403h-4.62v-1.368l-.19.19c-1.374 1.33-2.94 1.519-4.314 1.519a9.19 9.19 0 0 1-6.453-2.621v-.002Zm1.946-6.422c0 2.508 2.062 4.597 4.505 4.597s4.505-2.089 4.505-4.597c0-2.508-2.062-4.597-4.505-4.597S4.619 31.47 4.619 33.94ZM24.853 51.382c-.725-.38-1.374-.988-1.68-1.254l-.61-.607 3.435-3.001.497.418c1.031.76 2.328 1.292 3.397 1.367 2.596-.037 4.734-2.242 4.734-4.9V41.2l-.19.19c-1.336 1.292-2.596 1.481-4.01 1.558h-.648c-2.368-.077-4.467-.95-6.109-2.584-1.718-1.748-2.673-4.028-2.673-6.422s.955-4.674 2.673-6.422a9.183 9.183 0 0 1 6.453-2.62c1.87 0 3.168.494 4.314 1.633l.19.152V25.24h4.62v18.2c0 2.51-.992 4.827-2.786 6.575-1.719 1.785-4.047 2.735-6.566 2.735-1.832 0-3.588-.455-5.04-1.368v-.001Zm.764-17.44c0 2.508 2.061 4.597 4.505 4.597 2.443 0 4.504-2.089 4.504-4.597 0-2.509-2.06-4.635-4.504-4.635-2.444 0-4.505 2.128-4.505 4.635ZM44.208 40.4c-1.719-1.786-2.673-4.103-2.673-6.46s.954-4.712 2.673-6.46c1.756-1.67 4.047-2.62 6.49-2.62 2.443 0 4.81.95 6.453 2.62 1.756 1.748 2.71 4.028 2.71 6.46 0 2.432-.954 4.712-2.71 6.46a9.09 9.09 0 0 1-6.453 2.66c-2.443 0-4.697-.95-6.49-2.66Zm1.833-6.46c0 2.621 2.1 4.75 4.657 4.75 2.556 0 4.696-2.129 4.696-4.75s-2.1-4.75-4.696-4.75c-2.596 0-4.657 2.129-4.657 4.75ZM62.57 42.642V25.24h4.81v1.405c1.374-1.368 3.435-1.825 4.81-1.825h1.145l-1.144 4.75h-.725c-2.253 0-4.085 1.747-4.085 3.836v9.233h-4.81l-.001.003ZM76.466 40.362c-1.718-1.748-2.673-4.028-2.673-6.422s.954-4.674 2.673-6.422c1.719-1.71 4.01-2.621 6.453-2.621 1.603 0 3.055.57 4.314 1.71l.19.152v-1.52h4.62v17.403h-4.62v-1.367l-.19.189c-1.374 1.33-2.94 1.52-4.314 1.52a9.19 9.19 0 0 1-6.453-2.622Zm1.946-6.422c0 2.509 2.062 4.598 4.505 4.598s4.504-2.09 4.504-4.598-2.06-4.597-4.504-4.597c-2.443 0-4.505 2.128-4.505 4.597Z"/><path fill="url(#b)" d="M105.21 39.212c0 .627.511 1.135 1.142 1.135.63 0 1.141-.508 1.141-1.136V19.994c0-.628-.511-1.136-1.141-1.136-.631 0-1.142.508-1.142 1.136v19.219Z"/><path fill="url(#c)" d="M100.812 37.263a1.19 1.19 0 0 0 1.194 1.188 1.19 1.19 0 0 0 1.193-1.188V23.327a1.19 1.19 0 0 0-1.193-1.188 1.19 1.19 0 0 0-1.194 1.188v13.936Z"/><path fill="url(#d)" d="M96.386 33.907c0 .65.53 1.177 1.182 1.177a1.18 1.18 0 0 0 1.183-1.177V26.56c0-.65-.53-1.177-1.183-1.177a1.18 1.18 0 0 0-1.182 1.177v7.347Z"/><path fill="url(#e)" d="m116.383 19.32-5.13-3.314a1.056 1.056 0 0 0-1.456.308l-.001.001a1.045 1.045 0 0 0 .31 1.45l5.13 3.314c.488.315 1.14.177 1.456-.308l.001-.002a1.044 1.044 0 0 0-.31-1.449Z"/><path fill="url(#f)" d="m106.886 13.037-5.497-3.55a1.055 1.055 0 0 0-1.456.308v.001a1.044 1.044 0 0 0 .31 1.45l5.495 3.55c.488.316 1.14.178 1.457-.308l.001-.001a1.045 1.045 0 0 0-.31-1.45Z"/><path fill="url(#g)" d="M102.227 15.894 92.01 9.425a1.056 1.056 0 0 0-1.454.322v.001a1.045 1.045 0 0 0 .323 1.447l10.217 6.469c.491.31 1.141.166 1.454-.322v-.002a1.044 1.044 0 0 0-.323-1.446Z"/><path fill="url(#h)" d="m98.06 19.262-13.74-8.653a1.056 1.056 0 0 0-1.453.326h-.001c-.311.49-.165 1.137.327 1.447l13.74 8.652c.492.31 1.142.164 1.453-.325l.001-.002a1.045 1.045 0 0 0-.327-1.445Z"/><path fill="url(#i)" d="m121.247 27.964-14.453-9.1a1.055 1.055 0 0 0-1.452.325l-.001.002a1.044 1.044 0 0 0 .327 1.445l14.452 9.1c.491.31 1.142.164 1.453-.325v-.002a1.045 1.045 0 0 0-.326-1.445Z"/><path fill="url(#j)" d="m113.31 28.926-10.818-6.81a1.055 1.055 0 0 0-1.452.324v.002a1.045 1.045 0 0 0 .326 1.445l10.818 6.812c.491.309 1.14.163 1.451-.326l.001-.001a1.045 1.045 0 0 0-.326-1.446Z"/><path fill="url(#k)" d="M106.384 14.963h.002c.61 0 1.105-.493 1.105-1.1V6.02c0-.608-.495-1.1-1.105-1.1h-.002c-.61 0-1.105.492-1.105 1.1v7.842c0 .607.495 1.1 1.105 1.1Z"/><path fill="url(#l)" d="M101.92 17.97h.002c.659 0 1.194-.531 1.194-1.188V2.871c0-.656-.535-1.188-1.194-1.188h-.002a1.19 1.19 0 0 0-1.192 1.188v13.911a1.19 1.19 0 0 0 1.192 1.188Z"/><path fill="url(#m)" d="M96.392 20.056c0 .653.531 1.182 1.186 1.182.656 0 1.187-.53 1.187-1.182V1.182C98.765.529 98.234 0 97.578 0c-.655 0-1.186.529-1.186 1.182v18.874Z"/></g><defs><linearGradient id="b" x1="106.352" x2="106.352" y1="40.347" y2="18.857" gradientUnits="userSpaceOnUse"><stop stop-color="#EB9B1A"/><stop offset=".61" stop-color="#E57B2C"/><stop offset="1" stop-color="#E2663A"/></linearGradient><linearGradient id="c" x1="102.006" x2="102.006" y1="38.449" y2="22.137" gradientUnits="userSpaceOnUse"><stop stop-color="#EB9B1A"/><stop offset=".61" stop-color="#E57B2C"/><stop offset="1" stop-color="#E2663A"/></linearGradient><linearGradient id="d" x1="97.568" x2="97.568" y1="35.084" y2="25.383" gradientUnits="userSpaceOnUse"><stop stop-color="#EB9B1A"/><stop offset=".61" stop-color="#E57B2C"/><stop offset="1" stop-color="#E2663A"/></linearGradient><linearGradient id="e" x1="113.268" x2="114.493" y1="17.855" y2="14.942" gradientUnits="userSpaceOnUse"><stop stop-color="#02804C"/><stop offset=".49" stop-color="#068A4D"/><stop offset="1" stop-color="#0D9A51"/></linearGradient><linearGradient id="f" x1="107.333" x2="104.681" y1="14.246" y2="7.346" gradientUnits="userSpaceOnUse"><stop offset=".05" stop-color="#00427F"/><stop offset=".25" stop-color="#015F99"/><stop offset=".44" stop-color="#0275AD"/><stop offset=".63" stop-color="#0382B9"/><stop offset=".8" stop-color="#0487BE"/></linearGradient><linearGradient id="g" x1="99.118" x2="97.801" y1="14.913" y2="5.143" gradientUnits="userSpaceOnUse"><stop offset=".05" stop-color="#00427F"/><stop offset=".25" stop-color="#015F99"/><stop offset=".44" stop-color="#0275AD"/><stop offset=".63" stop-color="#0382B9"/><stop offset=".8" stop-color="#0487BE"/></linearGradient><linearGradient id="h" x1="93.429" x2="93.27" y1="17.355" y2="6.424" gradientUnits="userSpaceOnUse"><stop offset=".05" stop-color="#00427F"/><stop offset=".25" stop-color="#015F99"/><stop offset=".44" stop-color="#0275AD"/><stop offset=".63" stop-color="#0382B9"/><stop offset=".8" stop-color="#0487BE"/></linearGradient><linearGradient id="i" x1="111.508" x2="113.09" y1="22.515" y2="19.521" gradientUnits="userSpaceOnUse"><stop stop-color="#02804C"/><stop offset=".49" stop-color="#068A4D"/><stop offset="1" stop-color="#0D9A51"/></linearGradient><linearGradient id="j" x1="105.985" x2="107.48" y1="24.959" y2="21.975" gradientUnits="userSpaceOnUse"><stop stop-color="#02804C"/><stop offset=".49" stop-color="#068A4D"/><stop offset="1" stop-color="#0D9A51"/></linearGradient><linearGradient id="k" x1="106.386" x2="106.386" y1="14.961" y2="4.919" gradientUnits="userSpaceOnUse"><stop stop-color="#CD2768"/><stop offset=".8" stop-color="#AD1C51"/><stop offset="1" stop-color="#A5194B"/></linearGradient><linearGradient id="l" x1="101.92" x2="101.92" y1="17.97" y2="1.683" gradientUnits="userSpaceOnUse"><stop stop-color="#CD2768"/><stop offset=".8" stop-color="#AD1C51"/><stop offset="1" stop-color="#A5194B"/></linearGradient><linearGradient id="m" x1="97.577" x2="97.577" y1="21.235" y2="-.003" gradientUnits="userSpaceOnUse"><stop stop-color="#CD2768"/><stop offset=".8" stop-color="#AD1C51"/><stop offset="1" stop-color="#A5194B"/></linearGradient></defs></svg>