<svg xmlns="http://www.w3.org/2000/svg" width="139" height="60" fill="none"><path fill="#333" d="M3.04 45.909C1.085 43.921 0 41.328 0 38.606c0-2.721 1.085-5.316 3.04-7.304 1.954-1.946 4.56-2.982 7.338-2.982 1.824 0 3.474.648 4.906 1.946l.217.172V28.71h5.253v19.794h-5.253V46.95l-.216.215c-1.563 1.513-3.344 1.728-4.907 1.728a10.45 10.45 0 0 1-7.338-2.981v-.002Zm2.213-7.304c0 2.853 2.344 5.229 5.123 5.229 2.779 0 5.123-2.376 5.123-5.23 0-2.853-2.344-5.229-5.123-5.229-2.779 0-5.123 2.42-5.123 5.23ZM28.263 58.442c-.824-.432-1.563-1.123-1.91-1.425l-.695-.69 3.907-3.415.565.476c1.173.865 2.648 1.47 3.864 1.555 2.952-.042 5.384-2.55 5.384-5.574v-2.506l-.217.215c-1.52 1.47-2.952 1.685-4.56 1.773h-.738c-2.692-.087-5.08-1.08-6.946-2.939-1.955-1.988-3.04-4.581-3.04-7.304 0-2.724 1.085-5.317 3.04-7.305a10.443 10.443 0 0 1 7.338-2.982c2.128 0 3.603.563 4.906 1.859l.217.172V28.71h5.253v20.702c0 2.853-1.128 5.49-3.168 7.478-1.955 2.03-4.603 3.11-7.467 3.11-2.083 0-4.08-.517-5.731-1.555l-.002-.002Zm.87-19.836c0 2.853 2.343 5.229 5.122 5.229s5.123-2.376 5.123-5.23c0-2.853-2.344-5.271-5.123-5.271-2.779 0-5.123 2.42-5.123 5.272ZM50.276 45.951c-1.954-2.03-3.04-4.667-3.04-7.347 0-2.68 1.086-5.36 3.04-7.348 1.997-1.9 4.603-2.98 7.381-2.98 2.779 0 5.47 1.08 7.339 2.98 1.997 1.989 3.082 4.582 3.082 7.348s-1.085 5.359-3.082 7.347a10.337 10.337 0 0 1-7.339 3.026c-2.778 0-5.34-1.08-7.38-3.026Zm2.085-7.347c0 2.981 2.389 5.402 5.296 5.402 2.908 0 5.341-2.421 5.341-5.402 0-2.981-2.389-5.402-5.34-5.402-2.953 0-5.297 2.42-5.297 5.402ZM71.157 48.502V28.708h5.47v1.599c1.563-1.556 3.907-2.076 5.472-2.076H83.4l-1.302 5.402h-.824c-2.562 0-4.645 1.988-4.645 4.364V48.5h-5.47l-.002.003ZM86.96 45.908c-1.954-1.988-3.04-4.581-3.04-7.304 0-2.724 1.086-5.317 3.04-7.305 1.955-1.945 4.56-2.981 7.339-2.981 1.824 0 3.474.648 4.906 1.945l.217.173v-1.728h5.253v19.794h-5.253v-1.556l-.217.215c-1.562 1.513-3.343 1.729-4.906 1.729a10.45 10.45 0 0 1-7.338-2.982Zm2.214-7.304c0 2.853 2.344 5.229 5.123 5.229 2.779 0 5.123-2.376 5.123-5.23 0-2.852-2.344-5.229-5.123-5.229-2.779 0-5.123 2.421-5.123 5.23Z"/><path fill="url(#a)" d="M119.651 44.6c0 .713.581 1.292 1.299 1.292.716 0 1.297-.579 1.297-1.292V22.74c0-.714-.581-1.292-1.297-1.292-.718 0-1.299.578-1.299 1.292V44.6Z"/><path fill="url(#b)" d="M114.648 42.384c0 .747.608 1.352 1.358 1.352.75 0 1.357-.605 1.357-1.352v-15.85c0-.747-.607-1.352-1.357-1.352s-1.358.605-1.358 1.351v15.851Z"/><path fill="url(#c)" d="M109.614 38.566c0 .74.602 1.339 1.345 1.339.742 0 1.344-.6 1.344-1.339V30.21c0-.739-.602-1.338-1.344-1.338-.743 0-1.345.599-1.345 1.338v8.357Z"/><path fill="url(#d)" d="m132.357 21.975-5.834-3.77a1.2 1.2 0 0 0-1.656.35l-.001.002c-.36.552-.203 1.29.352 1.649l5.835 3.77a1.2 1.2 0 0 0 1.656-.35l.001-.002c.36-.552.202-1.29-.353-1.649Z"/><path fill="url(#e)" d="m121.556 14.83-6.251-4.04a1.2 1.2 0 0 0-1.656.351l-.001.002c-.36.552-.203 1.29.352 1.648l6.25 4.04a1.202 1.202 0 0 0 1.657-.351l.001-.002a1.19 1.19 0 0 0-.352-1.649Z"/><path fill="url(#f)" d="m116.259 18.079-11.62-7.358a1.2 1.2 0 0 0-1.653.366l-.001.002a1.188 1.188 0 0 0 .368 1.645l11.62 7.357c.558.354 1.297.19 1.653-.366v-.001a1.188 1.188 0 0 0-.367-1.645Z"/><path fill="url(#g)" d="m111.518 21.909-15.627-9.842a1.2 1.2 0 0 0-1.652.37v.002a1.189 1.189 0 0 0 .371 1.644l15.627 9.841a1.2 1.2 0 0 0 1.652-.37l.001-.001a1.188 1.188 0 0 0-.372-1.644Z"/><path fill="url(#h)" d="m137.889 31.806-16.437-10.35a1.2 1.2 0 0 0-1.651.37l-.001.001a1.187 1.187 0 0 0 .372 1.644l16.435 10.351a1.2 1.2 0 0 0 1.652-.37v-.002a1.188 1.188 0 0 0-.37-1.644Z"/><path fill="url(#i)" d="m128.862 32.901-12.302-7.747a1.2 1.2 0 0 0-1.652.37v.002a1.188 1.188 0 0 0 .37 1.644l12.303 7.747a1.2 1.2 0 0 0 1.651-.37l.001-.001a1.188 1.188 0 0 0-.371-1.645Z"/><path fill="url(#j)" d="M120.986 17.019h.002c.693 0 1.256-.56 1.256-1.251v-8.92c0-.69-.563-1.251-1.256-1.251h-.002c-.694 0-1.257.56-1.257 1.251v8.92c0 .69.563 1.25 1.257 1.25Z"/><path fill="url(#k)" d="M115.91 20.44h.002c.75 0 1.358-.605 1.358-1.351V3.265c0-.746-.608-1.35-1.358-1.35h-.002c-.75 0-1.357.604-1.357 1.35V19.09c0 .746.607 1.351 1.357 1.351Z"/><path fill="url(#l)" d="M109.622 22.812c0 .743.604 1.344 1.349 1.344s1.349-.601 1.349-1.344V1.344c0-.742-.604-1.344-1.349-1.344s-1.349.602-1.349 1.344v21.468Z"/><defs><linearGradient id="a" x1="120.95" x2="120.95" y1="45.892" y2="21.448" gradientUnits="userSpaceOnUse"><stop stop-color="#EB9B1A"/><stop offset=".61" stop-color="#E57B2C"/><stop offset="1" stop-color="#E2663A"/></linearGradient><linearGradient id="b" x1="116.006" x2="116.006" y1="43.734" y2="25.18" gradientUnits="userSpaceOnUse"><stop stop-color="#EB9B1A"/><stop offset=".61" stop-color="#E57B2C"/><stop offset="1" stop-color="#E2663A"/></linearGradient><linearGradient id="c" x1="110.959" x2="110.959" y1="39.905" y2="28.871" gradientUnits="userSpaceOnUse"><stop stop-color="#EB9B1A"/><stop offset=".61" stop-color="#E57B2C"/><stop offset="1" stop-color="#E2663A"/></linearGradient><linearGradient id="d" x1="128.814" x2="130.208" y1="20.309" y2="16.996" gradientUnits="userSpaceOnUse"><stop stop-color="#02804C"/><stop offset=".49" stop-color="#068A4D"/><stop offset="1" stop-color="#0D9A51"/></linearGradient><linearGradient id="e" x1="122.064" x2="119.047" y1="16.204" y2="8.357" gradientUnits="userSpaceOnUse"><stop offset=".05" stop-color="#00427F"/><stop offset=".25" stop-color="#015F99"/><stop offset=".44" stop-color="#0275AD"/><stop offset=".63" stop-color="#0382B9"/><stop offset=".8" stop-color="#0487BE"/></linearGradient><linearGradient id="f" x1="112.723" x2="111.225" y1="16.963" y2="5.85" gradientUnits="userSpaceOnUse"><stop offset=".05" stop-color="#00427F"/><stop offset=".25" stop-color="#015F99"/><stop offset=".44" stop-color="#0275AD"/><stop offset=".63" stop-color="#0382B9"/><stop offset=".8" stop-color="#0487BE"/></linearGradient><linearGradient id="g" x1="106.252" x2="106.071" y1="19.74" y2="7.306" gradientUnits="userSpaceOnUse"><stop offset=".05" stop-color="#00427F"/><stop offset=".25" stop-color="#015F99"/><stop offset=".44" stop-color="#0275AD"/><stop offset=".63" stop-color="#0382B9"/><stop offset=".8" stop-color="#0487BE"/></linearGradient><linearGradient id="h" x1="126.813" x2="128.613" y1="25.608" y2="22.203" gradientUnits="userSpaceOnUse"><stop stop-color="#02804C"/><stop offset=".49" stop-color="#068A4D"/><stop offset="1" stop-color="#0D9A51"/></linearGradient><linearGradient id="i" x1="120.532" x2="122.233" y1="28.389" y2="24.995" gradientUnits="userSpaceOnUse"><stop stop-color="#02804C"/><stop offset=".49" stop-color="#068A4D"/><stop offset="1" stop-color="#0D9A51"/></linearGradient><linearGradient id="j" x1="120.988" x2="120.988" y1="17.017" y2="5.595" gradientUnits="userSpaceOnUse"><stop stop-color="#CD2768"/><stop offset=".8" stop-color="#AD1C51"/><stop offset="1" stop-color="#A5194B"/></linearGradient><linearGradient id="k" x1="115.91" x2="115.91" y1="20.44" y2="1.914" gradientUnits="userSpaceOnUse"><stop stop-color="#CD2768"/><stop offset=".8" stop-color="#AD1C51"/><stop offset="1" stop-color="#A5194B"/></linearGradient><linearGradient id="l" x1="110.97" x2="110.97" y1="24.153" y2="-.004" gradientUnits="userSpaceOnUse"><stop stop-color="#CD2768"/><stop offset=".8" stop-color="#AD1C51"/><stop offset="1" stop-color="#A5194B"/></linearGradient></defs></svg>